<svg xmlns="http://www.w3.org/2000/svg" viewBox="0 0 32 32" width="32" height="32">
  <defs>
    <linearGradient id="flaskGradient" x1="0%" y1="0%" x2="100%" y2="100%">
      <stop offset="0%" style="stop-color:#ef4444;stop-opacity:1" />
      <stop offset="100%" style="stop-color:#dc2626;stop-opacity:1" />
    </linearGradient>
    <linearGradient id="liquidGradient" x1="0%" y1="0%" x2="100%" y2="100%">
      <stop offset="0%" style="stop-color:#f59e0b;stop-opacity:0.8" />
      <stop offset="100%" style="stop-color:#d97706;stop-opacity:0.9" />
    </linearGradient>
  </defs>
  
  <!-- Background circle -->
  <circle cx="16" cy="16" r="15" fill="#ffffff" stroke="#e5e7eb" stroke-width="1"/>
  
  <!-- Flask body -->
  <path d="M12 8 L12 12 L8 20 L8 24 C8 25.1 8.9 26 10 26 L22 26 C23.1 26 24 25.1 24 24 L24 20 L20 12 L20 8 Z" 
        fill="url(#flaskGradient)" stroke="#b91c1c" stroke-width="0.5"/>
  
  <!-- Flask neck -->
  <rect x="14" y="6" width="4" height="4" fill="url(#flaskGradient)" stroke="#b91c1c" stroke-width="0.5"/>
  
  <!-- Flask opening -->
  <ellipse cx="16" cy="6" rx="2" ry="0.5" fill="#dc2626"/>
  
  <!-- Liquid inside flask -->
  <path d="M10 22 L10 24 C10 24.5 10.4 25 11 25 L21 25 C21.6 25 22 24.5 22 24 L22 22 L18.5 16 L13.5 16 Z" 
        fill="url(#liquidGradient)"/>
  
  <!-- Bubbles in liquid -->
  <circle cx="14" cy="20" r="1" fill="#fbbf24" opacity="0.7"/>
  <circle cx="18" cy="22" r="0.8" fill="#fbbf24" opacity="0.6"/>
  <circle cx="16" cy="18" r="0.6" fill="#fbbf24" opacity="0.8"/>
  
  <!-- Highlight on flask -->
  <path d="M13 10 L13 14 L11 18 Q11 17 12 16 L15 11 Q14 10 13 10" 
        fill="#ffffff" opacity="0.3"/>
</svg>